HIERARCHY
ROOT Hips
{
	OFFSET 0.000000 0.000000 0.000000 
	CHANNELS 6 Xposition Yposition Zposition Zrotation Yrotation Xrotation
	JOINT LeftUpLeg
	{
		OFFSET 1.363060 -1.794630 0.839290 
		CHANNELS 3 Zrotation Yrotation Xrotation
		JOINT LeftLeg
		{
			OFFSET 2.448110 -6.726130 0.000000 
			CHANNELS 3 Zrotation Yrotation Xrotation
			JOINT LeftFoot
			{
				OFFSET 2.562200 -7.039590 0.000000 
				CHANNELS 3 Zrotation Yrotation Xrotation
				JOINT LeftToeBase
				{
					OFFSET 0.157640 -0.433110 2.322550 
					CHANNELS 3 Zrotation Yrotation Xrotation
					End Site
					{
						OFFSET 0.000000 0.000000 0.000000 
					}
				}
			}
		}
	}
	JOINT RightUpLeg
	{
		OFFSET -1.305520 -1.794630 0.839290 
		CHANNELS 3 Zrotation Yrotation Xrotation
		JOINT RightLeg
		{
			OFFSET -2.542530 -6.985550 0.000000 
			CHANNELS 3 Zrotation Yrotation Xrotation
			JOINT RightFoot
			{
				OFFSET -2.568260 -7.056230 0.000000 
				CHANNELS 3 Zrotation Yrotation Xrotation
				JOINT RightToeBase
				{
					OFFSET -0.164730 -0.452590 2.363150 
					CHANNELS 3 Zrotation Yrotation Xrotation
					End Site
					{
						OFFSET 0.000000 0.000000 0.000000 
					}
				}
			}
		}
	}
	JOINT Spine
	{
		OFFSET 0.028270 2.035590 -0.193380 
		CHANNELS 3 Zrotation Yrotation Xrotation
		JOINT Spine1
		{
			OFFSET 0.056720 2.048850 -0.042750 
			CHANNELS 3 Zrotation Yrotation Xrotation
			JOINT Neck1
			{
				OFFSET -0.054170 1.746240 0.172020 
				CHANNELS 3 Zrotation Yrotation Xrotation
				JOINT Head
				{
					OFFSET 0.104070 1.761360 -0.123970 
					CHANNELS 3 Zrotation Yrotation Xrotation
					End Site
					{
						OFFSET 0.000000 0.000000 0.000000 
					}
				}
			}
			JOINT LeftArm
			{
				OFFSET 3.362410 1.200890 -0.311210 
				CHANNELS 3 Zrotation Yrotation Xrotation
				JOINT LeftForeArm
				{
					OFFSET 4.983000 -0.000000 -0.000000 
					CHANNELS 3 Zrotation Yrotation Xrotation
					JOINT LeftHand
					{
						OFFSET 3.483560 -0.000000 -0.000000 
						CHANNELS 3 Zrotation Yrotation Xrotation
						JOINT LeftHandIndex1
						{
							OFFSET 0.715260 -0.000000 -0.000000 
							CHANNELS 3 Zrotation Yrotation Xrotation
							End Site
							{
								OFFSET 0.000000 0.000000 0.000000 
							}
						}
					}
				}
			}
			JOINT RightArm
			{
				OFFSET -3.136600 1.374050 -0.404650 
				CHANNELS 3 Zrotation Yrotation Xrotation
				JOINT RightForeArm
				{
					OFFSET -5.241900 -0.000000 -0.000000 
					CHANNELS 3 Zrotation Yrotation Xrotation
					JOINT RightHand
					{
						OFFSET -3.444170 -0.000000 -0.000000 
						CHANNELS 3 Zrotation Yrotation Xrotation
						JOINT RightHandIndex1
						{
							OFFSET -0.622530 -0.000000 -0.000000 
							CHANNELS 3 Zrotation Yrotation Xrotation
							End Site
							{
								OFFSET 0.000000 0.000000 0.000000 
							}
						}
					}
				}
			}
		}
	}
}
MOTION
Frames: 12
Frame Time: 0.041667
1.746480 18.256476 -0.140412 173.981723 -80.357597 -162.133505 -13.263086 -34.750230 1.538692 -2.193533 3.031200 10.578255 -12.650792 39.609120 -14.286720 1.246000 7.077400 19.944800 11.369885 24.179349 -5.189261 1.168336 -1.492570 6.823394 2.360012 -14.745374 -9.318310 -0.348800 -3.794600 10.499500 0.758422 0.305536 -8.281196 -0.422672 0.268258 -4.425880 -0.261406 -5.633653 11.951151 -0.170700 -2.960800 2.909300 -95.589468 10.270733 6.082131 24.083718 -23.594326 -4.859311 1.564485 -0.014450 20.523848 -7.125000 0.000000 0.000000 86.139421 -10.889033 29.300447 -20.799466 22.872602 -6.042649 1.723277 -0.798105 5.322406 7.125000 0.000000 0.000000 
1.745809 18.257371 -0.143545 174.184495 -80.393655 -162.319976 -13.221028 -34.877513 1.557143 -2.185676 3.054578 10.633535 -12.698185 39.712020 -14.379503 1.211700 6.983000 19.665100 11.403618 24.080922 -4.964956 1.204409 -1.290944 6.280070 2.397847 -14.901473 -9.071370 -0.353200 -3.818100 10.565400 0.796018 0.304063 -8.205881 -0.417178 0.266329 -4.376576 -0.407545 -5.730256 12.295248 -0.225100 -3.012800 3.085200 -95.597501 10.266564 6.155185 24.155707 -23.689213 -4.889192 1.559697 -0.013205 20.454003 -7.125000 0.000000 0.000000 86.098301 -10.902139 29.433340 -20.880633 22.960652 -6.064924 1.718939 -0.797342 5.245048 7.125000 0.000000 0.000000 
1.746256 18.268112 -0.147796 174.492367 -80.355386 -162.534490 -13.011627 -33.339134 0.757474 -2.181534 3.110228 10.795545 -12.200903 38.545945 -13.627362 1.131500 6.755900 18.994200 11.474602 24.059323 -4.968271 1.208820 -1.254698 6.207742 2.404402 -14.924329 -9.032366 -0.354600 -3.825600 10.586400 0.830889 0.382294 -8.181280 -0.404931 0.317298 -4.281204 -0.245997 -5.545577 11.950371 -0.160800 -2.917000 2.967900 -95.546997 10.238819 6.381317 24.183032 -23.712788 -4.897571 1.557215 -0.014158 20.427006 -7.125000 0.000000 0.000000 86.044904 -10.863260 29.469378 -20.887460 22.974325 -6.083091 1.717137 -0.788661 5.045021 7.125000 0.000000 0.000000 
1.751738 18.259833 -0.150705 174.661068 -80.431362 -162.713943 -13.031183 -34.962920 1.390680 -2.174621 3.099313 10.762304 -12.669846 39.631816 -14.592452 1.242300 7.067500 19.915500 11.497704 24.020074 -4.914408 1.225226 -1.161274 5.949091 2.422952 -15.006230 -8.910039 -0.346100 -3.780300 10.459300 0.845039 0.381883 -8.112749 -0.337589 0.299794 -4.353840 -1.946771 -5.486091 13.368951 -0.723000 -2.934800 3.426200 -95.467941 10.222890 6.683437 24.162103 -23.672172 -4.880001 1.551457 -0.008800 20.281517 -7.125000 0.000000 0.000000 86.025602 -10.795626 29.369311 -20.853681 22.966574 -6.075104 1.715935 -0.783876 4.915014 7.125000 0.000000 0.000000 
1.751403 18.265203 -0.153502 174.871715 -80.415173 -162.891188 -12.985028 -35.187848 1.452379 -2.224141 3.083105 10.831989 -12.329137 38.945375 -15.929899 1.581400 7.933600 22.512600 11.524531 24.020067 -4.850320 1.238728 -1.079225 5.730431 2.437066 -15.067994 -8.817115 -0.329800 -3.690800 10.208300 0.854140 0.397990 -8.043691 -0.332012 0.307243 -4.242040 -1.968959 -5.417574 13.017823 -0.739600 -2.893900 3.337500 -95.391610 10.113271 6.855069 24.184221 -23.692085 -4.870045 1.539292 0.008808 20.096945 -7.125000 0.000000 0.000000 86.017222 -10.629135 29.325581 -20.818187 22.943684 -6.072707 1.711173 -0.784243 4.926725 7.125000 0.000000 0.000000 
1.750955 18.267329 -0.157978 174.958418 -80.471172 -162.935496 -12.918904 -35.366072 1.475089 -2.201722 3.087310 10.797974 -12.541658 39.376013 -15.528041 1.338600 7.325800 20.684100 11.561221 24.027494 -5.027718 1.224182 -1.165235 5.965564 2.427280 -15.028700 -8.896311 -0.327500 -3.677900 10.172100 0.860857 0.355232 -7.988179 -0.330720 0.281658 -4.142839 -1.969562 -5.217658 12.722973 -0.750300 -2.787100 3.267400 -95.328856 10.008354 6.936458 24.239248 -23.754819 -4.876579 1.528052 0.022918 19.895567 -7.125000 0.000000 0.000000 86.010256 -10.462739 29.383896 -20.772349 22.905449 -6.059167 1.706956 -0.787086 4.873110 7.125000 0.000000 0.000000 
1.752969 18.268112 -0.161334 174.812369 -80.538010 -162.763183 -12.853565 -35.242085 1.343027 -2.226015 3.067552 10.797791 -12.308844 38.877375 -15.904158 1.576900 7.922900 22.480100 11.556024 23.957667 -5.081921 1.223386 -1.169585 5.977275 2.435562 -15.063630 -8.865038 -0.342200 -3.759000 10.399500 0.863624 0.343389 -7.861247 -0.336117 0.273919 -3.965618 -1.921160 -5.066726 12.595159 -0.738000 -2.708000 3.264900 -95.152843 9.793866 7.352402 24.156797 -23.666321 -4.851558 1.530871 0.033256 19.476336 -7.125000 0.000000 0.000000 85.969933 -10.255939 29.375143 -20.760342 22.894242 -6.043327 1.707297 -0.787565 4.746796 7.125000 0.000000 0.000000 
1.757109 18.264868 -0.164467 174.689308 -80.541040 -162.594738 -12.779518 -35.058558 1.184331 -2.191666 3.066594 10.709636 -12.558513 39.358855 -14.863802 1.276000 7.158900 20.187100 11.517904 23.961063 -5.150838 1.224569 -1.163539 5.955749 2.439688 -15.081250 -8.853306 -0.342800 -3.762100 10.408200 0.892392 0.350041 -7.765784 -0.288014 0.277436 -3.835140 -1.964883 -5.026811 12.668050 -0.742700 -2.692500 3.324500 -95.033925 9.544741 7.630701 23.965970 -23.462774 -4.793774 1.541272 0.035928 19.316576 -7.125000 0.000000 0.000000 85.972123 -10.254983 29.148043 -20.928003 23.084505 -6.120320 1.692756 -0.786228 4.831387 7.125000 0.000000 0.000000 
1.761136 18.265315 -0.169613 174.873419 -80.485432 -162.688675 -12.648772 -34.777566 0.950090 -2.194054 3.058730 10.684321 -12.507912 39.221225 -14.687067 1.271600 7.147200 20.152300 11.523611 24.033449 -5.262683 1.222245 -1.174108 5.988719 2.434543 -15.059811 -8.881088 -0.332200 -3.704000 10.245200 0.940976 0.364839 -7.844714 -0.238078 0.293843 -3.891761 -1.661563 -4.935835 12.272118 -0.617000 -2.641200 3.171800 -95.129288 9.481606 7.320013 23.876996 -23.372199 -4.762378 1.545962 0.029523 19.690215 -7.125000 0.000000 0.000000 86.112493 -10.608769 28.741232 -21.311982 23.486979 -6.279414 1.671336 -0.790436 5.128971 7.125000 0.000000 0.000000 
1.762815 18.272699 -0.174872 175.089475 -80.448748 -162.856639 -12.533190 -34.339695 0.735397 -2.200376 3.045645 10.634498 -12.388446 38.923443 -14.328604 1.286400 7.186900 20.270400 11.567532 24.095862 -5.372165 1.211663 -1.230464 6.148367 2.427272 -15.027844 -8.919491 -0.331200 -3.698500 10.230000 1.007340 0.383606 -7.899937 -0.184027 0.313832 -3.905415 -1.230328 -4.798794 11.513544 -0.439800 -2.564300 2.906100 -95.228626 9.432299 7.126146 23.820577 -23.315569 -4.737299 1.545115 0.037705 19.865156 -7.125000 0.000000 0.000000 86.120497 -10.864454 28.683037 -21.554962 23.722716 -6.367336 1.660236 -0.798521 5.279249 7.125000 0.000000 0.000000 
1.762367 18.274266 -0.177669 174.888092 -80.444093 -162.621858 -12.536831 -34.260148 0.699782 -2.217355 3.021575 10.594922 -12.282875 38.693655 -14.504866 1.389300 7.457400 21.077600 11.503319 24.104889 -5.460057 1.207828 -1.254949 6.203361 2.436164 -15.064061 -8.891974 -0.325000 -3.664100 10.133600 1.050659 0.369016 -7.818800 -0.092402 0.304901 -3.810558 -1.954847 -4.713794 11.675146 -0.648800 -2.543100 2.983200 -95.244864 9.346496 7.254640 23.812860 -23.312703 -4.734347 1.541511 0.048655 19.757390 -7.125000 0.000000 0.000000 85.893677 -10.748606 29.097621 -21.460204 23.627149 -6.329825 1.660698 -0.797248 5.025821 7.125000 0.000000 0.000000 
1.757780 18.270685 -0.180913 174.706369 -80.431536 -162.406895 -12.571418 -34.286410 0.739296 -2.225931 3.003298 10.558299 -12.271339 38.677065 -14.614238 1.424200 7.546600 21.345300 11.440855 24.131730 -5.540558 1.202985 -1.287660 6.279656 2.434037 -15.058570 -8.936330 -0.320300 -3.637700 10.059500 1.069137 0.392116 -7.718497 -0.053050 0.312211 -3.634331 -2.318388 -4.631579 11.509081 -0.748700 -2.511400 2.955600 -95.238461 9.316958 7.426727 23.911197 -23.430073 -4.772528 1.535287 0.060633 19.706719 -7.125000 0.000000 0.000000 85.659069 -10.486931 29.486851 -21.307160 23.476907 -6.280532 1.668692 -0.779045 4.434928 7.125000 0.000000 0.000000 
